<svg width="40" height="40" viewBox="0 0 40 40" fill="none" xmlns="http://www.w3.org/2000/svg">
<path d="M7.19667 34.2268C9.39333 36.6668 12.93 36.6668 20 36.6668C27.07 36.6668 30.6067 36.6668 32.8033 34.2252C35 31.7868 35 27.8568 35 20.0002C35 12.1435 35 8.21516 32.8033 5.7735C30.6067 3.33183 27.07 3.3335 20 3.3335C12.93 3.3335 9.39333 3.3335 7.19667 5.7735C5 8.21683 5 12.1435 5 20.0002C5 27.8568 5 31.7868 7.19667 34.2268Z" stroke="white" stroke-width="1.5"/>
<path d="M11.6666 13.3333C11.6666 12.5583 11.6666 12.1717 11.7516 11.8533C11.8653 11.4298 12.0883 11.0436 12.3984 10.7335C12.7085 10.4234 13.0947 10.2003 13.5183 10.0867C13.84 10 14.2266 10 15 10H25C25.775 10 26.1616 10 26.48 10.085C26.9035 10.1987 27.2897 10.4217 27.5998 10.7318C27.9099 11.0419 28.133 11.4281 28.2466 11.8517C28.3333 12.1733 28.3333 12.56 28.3333 13.3333C28.3333 14.1067 28.3333 14.495 28.2483 14.8133C28.1346 15.2369 27.9116 15.6231 27.6015 15.9332C27.2914 16.2433 26.9052 16.4663 26.4816 16.58C26.1616 16.6667 25.7733 16.6667 25 16.6667H15C14.225 16.6667 13.8383 16.6667 13.52 16.5817C13.0964 16.468 12.7102 16.2449 12.4001 15.9349C12.09 15.6248 11.8669 15.2386 11.7533 14.815C11.6666 14.4933 11.6666 14.1067 11.6666 13.3333Z" stroke="white" stroke-width="1.5"/>
<path d="M13.3333 23.3333C14.2538 23.3333 15 22.5871 15 21.6667C15 20.7462 14.2538 20 13.3333 20C12.4128 20 11.6666 20.7462 11.6666 21.6667C11.6666 22.5871 12.4128 23.3333 13.3333 23.3333Z" fill="white"/>
<path d="M13.3333 30.0003C14.2538 30.0003 15 29.2541 15 28.3337C15 27.4132 14.2538 26.667 13.3333 26.667C12.4128 26.667 11.6666 27.4132 11.6666 28.3337C11.6666 29.2541 12.4128 30.0003 13.3333 30.0003Z" fill="white"/>
<path d="M20 23.3333C20.9205 23.3333 21.6667 22.5871 21.6667 21.6667C21.6667 20.7462 20.9205 20 20 20C19.0796 20 18.3334 20.7462 18.3334 21.6667C18.3334 22.5871 19.0796 23.3333 20 23.3333Z" fill="white"/>
<path d="M20 30.0003C20.9205 30.0003 21.6667 29.2541 21.6667 28.3337C21.6667 27.4132 20.9205 26.667 20 26.667C19.0796 26.667 18.3334 27.4132 18.3334 28.3337C18.3334 29.2541 19.0796 30.0003 20 30.0003Z" fill="white"/>
<path d="M26.6667 23.3333C27.5871 23.3333 28.3333 22.5871 28.3333 21.6667C28.3333 20.7462 27.5871 20 26.6667 20C25.7462 20 25 20.7462 25 21.6667C25 22.5871 25.7462 23.3333 26.6667 23.3333Z" fill="white"/>
<path d="M26.6667 30.0003C27.5871 30.0003 28.3333 29.2541 28.3333 28.3337C28.3333 27.4132 27.5871 26.667 26.6667 26.667C25.7462 26.667 25 27.4132 25 28.3337C25 29.2541 25.7462 30.0003 26.6667 30.0003Z" fill="white"/>
</svg>
