<svg width="40" height="40" viewBox="0 0 40 40" fill="none" xmlns="http://www.w3.org/2000/svg">
<path d="M7.19667 34.2267C9.39333 36.6667 12.93 36.6667 20 36.6667C27.07 36.6667 30.6067 36.6667 32.8033 34.225C35 31.7867 35 27.8567 35 20C35 12.1433 35 8.215 32.8033 5.77333C30.6067 3.33167 27.07 3.33333 20 3.33333C12.93 3.33333 9.39333 3.33333 7.19667 5.77333C5 8.21667 5 12.1433 5 20C5 27.8567 5 31.7867 7.19667 34.2267Z" stroke="#4B4B4B" stroke-width="1.5"/>
<path d="M11.6667 13.3333C11.6667 12.5583 11.6667 12.1717 11.7517 11.8533C11.8653 11.4298 12.0884 11.0436 12.3985 10.7335C12.7086 10.4234 13.0948 10.2003 13.5184 10.0867C13.84 10 14.2267 10 15 10H25C25.775 10 26.1617 10 26.48 10.085C26.9036 10.1987 27.2898 10.4217 27.5999 10.7318C27.91 11.0419 28.133 11.4281 28.2467 11.8517C28.3334 12.1733 28.3334 12.56 28.3334 13.3333C28.3334 14.1067 28.3334 14.495 28.2484 14.8133C28.1347 15.2369 27.9116 15.6231 27.6015 15.9332C27.2914 16.2433 26.9052 16.4663 26.4817 16.58C26.1617 16.6667 25.7734 16.6667 25 16.6667H15C14.225 16.6667 13.8384 16.6667 13.52 16.5817C13.0965 16.468 12.7103 16.2449 12.4002 15.9349C12.0901 15.6248 11.867 15.2386 11.7534 14.815C11.6667 14.4933 11.6667 14.1067 11.6667 13.3333Z" stroke="#4B4B4B" stroke-width="1.5"/>
<path d="M13.3334 23.3333C14.2538 23.3333 15 22.5871 15 21.6667C15 20.7462 14.2538 20 13.3334 20C12.4129 20 11.6667 20.7462 11.6667 21.6667C11.6667 22.5871 12.4129 23.3333 13.3334 23.3333Z" fill="#4B4B4B"/>
<path d="M13.3334 30C14.2538 30 15 29.2538 15 28.3333C15 27.4129 14.2538 26.6667 13.3334 26.6667C12.4129 26.6667 11.6667 27.4129 11.6667 28.3333C11.6667 29.2538 12.4129 30 13.3334 30Z" fill="#4B4B4B"/>
<path d="M20 23.3333C20.9205 23.3333 21.6666 22.5871 21.6666 21.6667C21.6666 20.7462 20.9205 20 20 20C19.0795 20 18.3333 20.7462 18.3333 21.6667C18.3333 22.5871 19.0795 23.3333 20 23.3333Z" fill="#4B4B4B"/>
<path d="M20 30C20.9205 30 21.6666 29.2538 21.6666 28.3333C21.6666 27.4129 20.9205 26.6667 20 26.6667C19.0795 26.6667 18.3333 27.4129 18.3333 28.3333C18.3333 29.2538 19.0795 30 20 30Z" fill="#4B4B4B"/>
<path d="M26.6667 23.3333C27.5871 23.3333 28.3333 22.5871 28.3333 21.6667C28.3333 20.7462 27.5871 20 26.6667 20C25.7462 20 25 20.7462 25 21.6667C25 22.5871 25.7462 23.3333 26.6667 23.3333Z" fill="#4B4B4B"/>
<path d="M26.6667 30C27.5871 30 28.3333 29.2538 28.3333 28.3333C28.3333 27.4129 27.5871 26.6667 26.6667 26.6667C25.7462 26.6667 25 27.4129 25 28.3333C25 29.2538 25.7462 30 26.6667 30Z" fill="#4B4B4B"/>
</svg>
