<svg width="33" height="31" viewBox="0 0 33 31" fill="none" xmlns="http://www.w3.org/2000/svg">
<path d="M17.9129 1.26353C17.514 0.861948 16.9731 0.636353 16.4091 0.636353C15.845 0.636353 15.3041 0.861948 14.9052 1.26353L0.766428 15.4999C0.667544 15.5995 0.589105 15.7177 0.535589 15.8478C0.482073 15.9779 0.454529 16.1174 0.454529 16.2582C0.454529 16.399 0.482073 16.5385 0.535589 16.6686C0.589105 16.7987 0.667544 16.9169 0.766428 17.0165C0.966134 17.2176 1.23699 17.3306 1.51942 17.3306C1.65926 17.3306 1.79774 17.3029 1.92693 17.249C2.05613 17.1951 2.17353 17.1161 2.27241 17.0165L3.64651 15.6306V26.9687C3.64651 27.8208 3.98267 28.6381 4.58103 29.2407C5.17939 29.8433 5.99094 30.1818 6.83715 30.1818H25.981C26.8272 30.1818 27.6388 29.8433 28.2371 29.2407C28.8355 28.6381 29.1716 27.8208 29.1716 26.9687V15.6306L30.5457 17.0165C30.7454 17.2176 31.0163 17.3306 31.2987 17.3306C31.5812 17.3306 31.852 17.2176 32.0517 17.0165C32.2514 16.8154 32.3636 16.5426 32.3636 16.2582C32.3636 15.9738 32.2514 15.701 32.0517 15.4999L27.0445 10.4595V3.40562C27.0445 3.12156 26.9325 2.84914 26.733 2.64828C26.5336 2.44742 26.2631 2.33458 25.981 2.33458H23.8539C23.5718 2.33458 23.3013 2.44742 23.1019 2.64828C22.9024 2.84914 22.7904 3.12156 22.7904 3.40562V6.17535L17.9129 1.26353ZM27.0445 13.4885V26.9687C27.0445 27.2527 26.9325 27.5252 26.733 27.726C26.5336 27.9269 26.2631 28.0397 25.981 28.0397H6.83715C6.55508 28.0397 6.28457 27.9269 6.08511 27.726C5.88566 27.5252 5.77361 27.2527 5.77361 26.9687V13.4885L16.4091 2.77799L27.0445 13.4885Z" fill="#184065"/>
</svg>
