<svg width="24" height="30" viewBox="0 0 24 30" fill="none" xmlns="http://www.w3.org/2000/svg">
<path fill-rule="evenodd" clip-rule="evenodd" d="M4.93085 4.61249C5.85672 3.6796 6.95796 2.93906 8.17118 2.43349C9.38441 1.92792 10.6856 1.66731 12 1.66666C14.65 1.66666 17.1933 2.72499 19.0691 4.61249C20.9475 6.50532 22.001 9.06417 22 11.7308C22 16.3358 19.4466 20.5041 16.7867 23.5816C15.6657 24.8722 14.4504 26.0778 13.1508 27.1883C12.775 27.5105 12.3913 27.8234 12 28.1266C11.6089 27.8231 11.2252 27.5102 10.8492 27.1883C9.54955 26.0778 8.33426 24.8722 7.21334 23.5816C4.55335 20.5041 2.00002 16.3358 2.00002 11.7308C2.00002 9.05998 3.05502 6.49998 4.93085 4.61249ZM11.52 29.8474L12 29.1666L12.48 29.8474C12.3395 29.9464 12.1719 29.9995 12 29.9995C11.8281 29.9995 11.6605 29.9464 11.52 29.8474ZM11.52 29.8474L12 29.1666L12.48 29.8474L12.4833 29.8458L12.4917 29.8399L12.5167 29.8208L12.615 29.7499C12.6994 29.6883 12.8189 29.5983 12.9733 29.4799C13.28 29.2449 13.715 28.8991 14.2342 28.4549C15.597 27.2901 16.8713 26.0255 18.0466 24.6716C20.8033 21.4833 23.6666 16.9333 23.6666 11.73C23.6666 8.62164 22.4383 5.63832 20.2516 3.43832C19.1709 2.34941 17.8854 1.48503 16.4693 0.894932C15.0531 0.304838 13.5342 0.000690495 12 0C10.4659 0.000581342 8.94699 0.304598 7.53083 0.894548C6.11466 1.4845 4.82917 2.34873 3.74835 3.43749C1.55977 5.64267 0.332161 8.62393 0.33336 11.7308C0.33336 16.9333 3.19669 21.4833 5.95334 24.6716C7.12865 26.0255 8.40299 27.2901 9.76584 28.4549C10.2858 28.8991 10.72 29.2449 11.0267 29.4799C11.1771 29.5958 11.3291 29.7097 11.4825 29.8216L11.5092 29.8399L11.5167 29.8458L11.52 29.8474ZM8.66667 11.6666C8.66667 10.7826 9.01786 9.93474 9.64298 9.30962C10.2681 8.6845 11.1159 8.33331 12 8.33331C12.884 8.33331 13.7319 8.6845 14.357 9.30962C14.9821 9.93474 15.3333 10.7826 15.3333 11.6666C15.3333 12.5507 14.9821 13.3985 14.357 14.0237C13.7319 14.6488 12.884 15 12 15C11.1159 15 10.2681 14.6488 9.64298 14.0237C9.01786 13.3985 8.66667 12.5507 8.66667 11.6666ZM12 6.66665C10.6739 6.66665 9.40215 7.19343 8.46447 8.13111C7.52679 9.06879 7.00001 10.3406 7.00001 11.6666C7.00001 12.9927 7.52679 14.2645 8.46447 15.2022C9.40215 16.1398 10.6739 16.6666 12 16.6666C13.3261 16.6666 14.5978 16.1398 15.5355 15.2022C16.4732 14.2645 17 12.9927 17 11.6666C17 10.3406 16.4732 9.06879 15.5355 8.13111C14.5978 7.19343 13.3261 6.66665 12 6.66665Z" fill="#184065"/>
<path d="M11.9998 1.25L12 1.25C14.7612 1.25 17.4108 2.35277 19.3647 4.31878L19.3649 4.31899C21.3207 6.28987 22.4177 8.95422 22.4166 11.7308L11.9998 1.25ZM11.9998 1.25C10.6305 1.25067 9.27485 1.52217 8.01091 2.04888C6.74697 2.57558 5.59969 3.34709 4.63511 4.31898C2.68162 6.28472 1.58336 8.9503 1.58336 11.7308C1.58336 16.4849 4.21419 20.7489 6.89811 23.8541L6.89876 23.8548C8.03312 25.1609 9.26297 26.3809 10.5782 27.5048C10.9593 27.8311 11.3482 28.1482 11.7445 28.4558L11.9041 28.5796M11.9998 1.25L11.9041 28.5796M17.1019 23.8541L17.1012 23.8548C15.9669 25.1609 14.7372 26.3808 13.422 27.5046L17.1019 23.8541ZM17.1019 23.8541C19.7858 20.7489 22.4166 16.485 22.4166 11.731L17.1019 23.8541ZM11.9041 28.5796L11.6595 28.9265L11.4246 29.2596C11.3766 29.2232 11.3287 29.1866 11.2809 29.1498L11.2801 29.1492C10.9791 28.9186 10.5507 28.5774 10.0365 28.1381C8.68952 26.9868 7.43004 25.737 6.26843 24.399C3.53572 21.2383 0.750025 16.784 0.750025 11.7308L0.750025 11.7306C0.748869 8.73378 1.93298 5.85813 4.04405 3.73104M11.9041 28.5796L12.7199 29.1492C13.0211 28.9184 13.4502 28.5773 13.9633 28.1383L13.9634 28.1382C15.3105 26.9869 16.57 25.7369 17.7317 24.3988C20.4643 21.2382 23.25 16.784 23.25 11.73C23.25 8.7314 22.065 5.85376 19.9561 3.73206L19.9559 3.73184C18.9139 2.68193 17.6744 1.8485 16.309 1.27954C14.9436 0.710606 13.4792 0.417352 12 0.416666C10.5208 0.417251 9.05644 0.710378 7.69106 1.27917C6.32561 1.84799 5.08616 2.68127 4.04405 3.73104M12.0959 28.5794L12.3405 28.9265L12.5753 29.2595L12.0959 28.5794ZM12.0959 28.5794L12.2552 28.4559M12.0959 28.5794L12.2552 28.4559M4.04405 3.73104L3.74835 3.43749L4.04405 3.73104ZM12.2552 28.4559C12.6519 28.1486 13.0408 27.8314 13.4218 27.5048L12.2552 28.4559ZM9.34835 9.01499C8.64509 9.71825 8.25001 10.6721 8.25001 11.6666C8.25001 12.6612 8.64509 13.615 9.34835 14.3183C10.0516 15.0215 11.0054 15.4166 12 15.4166C12.9946 15.4166 13.9484 15.0215 14.6516 14.3183C15.3549 13.615 15.75 12.6612 15.75 11.6666C15.75 10.6721 15.3549 9.71825 14.6516 9.01499C13.9484 8.31174 12.9946 7.91665 12 7.91665C11.0054 7.91665 10.0516 8.31174 9.34835 9.01499ZM8.7591 8.42574C9.61864 7.5662 10.7844 7.08332 12 7.08332C13.2156 7.08332 14.3814 7.5662 15.2409 8.42574C16.1004 9.28528 16.5833 10.4511 16.5833 11.6666C16.5833 12.8822 16.1004 14.048 15.2409 14.9075C14.3814 15.7671 13.2156 16.25 12 16.25C10.7844 16.25 9.61864 15.7671 8.7591 14.9075C7.89956 14.048 7.41668 12.8822 7.41668 11.6666C7.41668 10.4511 7.89956 9.28528 8.7591 8.42574Z" stroke="#184065" stroke-opacity="0.13" stroke-width="0.833331"/>
</svg>
