<svg width="26" height="26" viewBox="0 0 26 26" fill="none" xmlns="http://www.w3.org/2000/svg">
<mask id="path-1-inside-1_54_438" fill="white">
<path d="M24.8852 17.815L18.6185 15.0066C18.3346 14.885 18.0248 14.836 17.7171 14.8643C17.4095 14.8926 17.1138 14.9971 16.8568 15.1685C16.8308 15.1853 16.8059 15.2039 16.7825 15.2242L13.5072 18.01C13.4732 18.0285 13.4354 18.0389 13.3967 18.0403C13.358 18.0417 13.3196 18.034 13.2843 18.018C11.1791 17.0018 8.99818 14.8342 7.97804 12.7581C7.96105 12.7234 7.95222 12.6853 7.95222 12.6466C7.95222 12.608 7.96105 12.5699 7.97804 12.5352L10.7731 9.21876C10.7932 9.19425 10.8118 9.16856 10.8288 9.14182C10.9978 8.88381 11.0999 8.58777 11.1259 8.28043C11.1518 7.9731 11.1008 7.66414 10.9774 7.38145L8.18897 1.12531C8.03061 0.755998 7.75675 0.44801 7.40849 0.247568C7.06023 0.0471249 6.65635 -0.0349602 6.25747 0.0136319C4.52394 0.241534 2.93269 1.09285 1.78111 2.40851C0.629517 3.72416 -0.00361847 5.41411 1.55572e-05 7.16257C1.55572e-05 17.5497 8.4503 26 18.8374 26C20.5858 26.0033 22.2756 25.3701 23.5911 24.2186C24.9067 23.067 25.7581 21.4759 25.9863 19.7425C26.0348 19.3455 25.9538 18.9434 25.7554 18.5961C25.5571 18.2489 25.2519 17.9749 24.8852 17.815ZM18.8374 24.4081C9.32849 24.4081 1.59191 16.6715 1.59191 7.16257C1.58747 5.8014 2.07876 4.48519 2.97399 3.45983C3.86922 2.43448 5.10714 1.77014 6.45646 1.59093H6.48697C6.54043 1.59193 6.59234 1.60906 6.63589 1.64007C6.67945 1.67108 6.71262 1.71453 6.73106 1.76472L9.53013 8.01423C9.5461 8.04897 9.55436 8.08676 9.55436 8.125C9.55436 8.16324 9.5461 8.20102 9.53013 8.23577L6.72973 11.5602C6.70894 11.584 6.68988 11.6093 6.67269 11.6358C6.49746 11.9033 6.39427 12.2115 6.37312 12.5306C6.35197 12.8497 6.41358 13.1689 6.55197 13.4572C7.72864 15.8663 10.1563 18.2753 12.5919 19.452C12.8819 19.5896 13.2026 19.6497 13.5227 19.6265C13.8429 19.6032 14.1515 19.4974 14.4186 19.3193C14.4438 19.3021 14.469 19.2835 14.4929 19.2636L17.7668 16.4778C17.7992 16.4604 17.8349 16.4502 17.8715 16.448C17.9081 16.4457 17.9448 16.4513 17.9791 16.4645L24.2472 19.2729C24.2984 19.2947 24.3414 19.3321 24.3702 19.3797C24.399 19.4273 24.4121 19.4827 24.4077 19.5382C24.2294 20.8882 23.5657 22.127 22.5406 23.0232C21.5154 23.9195 20.199 24.4118 18.8374 24.4081Z"/>
</mask>
<path d="M24.8852 17.815L18.6185 15.0066C18.3346 14.885 18.0248 14.836 17.7171 14.8643C17.4095 14.8926 17.1138 14.9971 16.8568 15.1685C16.8308 15.1853 16.8059 15.2039 16.7825 15.2242L13.5072 18.01C13.4732 18.0285 13.4354 18.0389 13.3967 18.0403C13.358 18.0417 13.3196 18.034 13.2843 18.018C11.1791 17.0018 8.99818 14.8342 7.97804 12.7581C7.96105 12.7234 7.95222 12.6853 7.95222 12.6466C7.95222 12.608 7.96105 12.5699 7.97804 12.5352L10.7731 9.21876C10.7932 9.19425 10.8118 9.16856 10.8288 9.14182C10.9978 8.88381 11.0999 8.58777 11.1259 8.28043C11.1518 7.9731 11.1008 7.66414 10.9774 7.38145L8.18897 1.12531C8.03061 0.755998 7.75675 0.44801 7.40849 0.247568C7.06023 0.0471249 6.65635 -0.0349602 6.25747 0.0136319C4.52394 0.241534 2.93269 1.09285 1.78111 2.40851C0.629517 3.72416 -0.00361847 5.41411 1.55572e-05 7.16257C1.55572e-05 17.5497 8.4503 26 18.8374 26C20.5858 26.0033 22.2756 25.3701 23.5911 24.2186C24.9067 23.067 25.7581 21.4759 25.9863 19.7425C26.0348 19.3455 25.9538 18.9434 25.7554 18.5961C25.5571 18.2489 25.2519 17.9749 24.8852 17.815ZM18.8374 24.4081C9.32849 24.4081 1.59191 16.6715 1.59191 7.16257C1.58747 5.8014 2.07876 4.48519 2.97399 3.45983C3.86922 2.43448 5.10714 1.77014 6.45646 1.59093H6.48697C6.54043 1.59193 6.59234 1.60906 6.63589 1.64007C6.67945 1.67108 6.71262 1.71453 6.73106 1.76472L9.53013 8.01423C9.5461 8.04897 9.55436 8.08676 9.55436 8.125C9.55436 8.16324 9.5461 8.20102 9.53013 8.23577L6.72973 11.5602C6.70894 11.584 6.68988 11.6093 6.67269 11.6358C6.49746 11.9033 6.39427 12.2115 6.37312 12.5306C6.35197 12.8497 6.41358 13.1689 6.55197 13.4572C7.72864 15.8663 10.1563 18.2753 12.5919 19.452C12.8819 19.5896 13.2026 19.6497 13.5227 19.6265C13.8429 19.6032 14.1515 19.4974 14.4186 19.3193C14.4438 19.3021 14.469 19.2835 14.4929 19.2636L17.7668 16.4778C17.7992 16.4604 17.8349 16.4502 17.8715 16.448C17.9081 16.4457 17.9448 16.4513 17.9791 16.4645L24.2472 19.2729C24.2984 19.2947 24.3414 19.3321 24.3702 19.3797C24.399 19.4273 24.4121 19.4827 24.4077 19.5382C24.2294 20.8882 23.5657 22.127 22.5406 23.0232C21.5154 23.9195 20.199 24.4118 18.8374 24.4081Z" fill="#184065"/>
<path d="M24.8852 17.815L24.4763 18.7276L24.4855 18.7316L24.8852 17.815ZM18.6185 15.0066L19.0275 14.0941L19.0199 14.0907L19.0123 14.0875L18.6185 15.0066ZM16.8568 15.1685L17.3993 16.0085L17.4055 16.0046L17.4115 16.0005L16.8568 15.1685ZM16.7825 15.2242L17.4304 15.9859L17.437 15.9802L16.7825 15.2242ZM13.5072 18.01L13.9859 18.888L14.0765 18.8386L14.1551 18.7717L13.5072 18.01ZM13.2843 18.018L12.8497 18.9185L12.8595 18.9233L12.8695 18.9278L13.2843 18.018ZM7.97804 12.7581L7.07994 13.1979L7.08054 13.1991L7.97804 12.7581ZM7.95222 12.6466H8.95222H7.95222ZM7.97804 12.5352L7.21339 11.8908L7.13407 11.9849L7.07994 12.0954L7.97804 12.5352ZM10.7731 9.21876L11.5379 9.86327L11.5466 9.85256L10.7731 9.21876ZM10.8288 9.14182L9.99224 8.59387L9.98535 8.60469L10.8288 9.14182ZM10.9774 7.38145L11.894 6.98149L11.8908 6.97434L10.9774 7.38145ZM8.18897 1.12531L7.26989 1.51939L7.27269 1.52592L7.27559 1.53241L8.18897 1.12531ZM6.25747 0.0136319L6.13654 -0.979074L6.12713 -0.977837L6.25747 0.0136319ZM1.55572e-05 7.16257H1.00002L1.00001 7.16049L1.55572e-05 7.16257ZM18.8374 26L18.8393 25H18.8374V26ZM25.9863 19.7425L26.9778 19.873L26.9789 19.8638L25.9863 19.7425ZM18.8374 24.4081L18.8401 23.4081H18.8374V24.4081ZM1.59191 7.16257H2.59191L2.5919 7.15931L1.59191 7.16257ZM6.45646 1.59093V0.590934H6.39034L6.3248 0.599639L6.45646 1.59093ZM6.48697 1.59093L6.50564 0.591109L6.4963 0.590934H6.48697V1.59093ZM6.73106 1.76472L5.79239 2.10954L5.8043 2.14196L5.81842 2.17348L6.73106 1.76472ZM9.53013 8.01423L8.61745 8.42301L8.62145 8.43173L9.53013 8.01423ZM9.53013 8.23577L10.2949 8.88002L10.3822 8.77639L10.4388 8.65327L9.53013 8.23577ZM6.72973 11.5602L7.48301 12.2179L7.48884 12.2112L7.49454 12.2044L6.72973 11.5602ZM6.67269 11.6358L7.50921 12.1838L7.51197 12.1795L6.67269 11.6358ZM6.55197 13.4572L5.65044 13.89L5.65343 13.8961L6.55197 13.4572ZM12.5919 19.452L12.1568 20.3524L12.1631 20.3554L12.5919 19.452ZM14.4186 19.3193L14.9734 20.1514L14.9832 20.1446L14.4186 19.3193ZM14.4929 19.2636L15.1331 20.0319L15.1409 20.0252L14.4929 19.2636ZM17.7668 16.4778L17.2935 15.5969L17.1998 15.6473L17.1188 15.7162L17.7668 16.4778ZM17.9791 16.4645L18.388 15.5519L18.3638 15.5411L18.3391 15.5316L17.9791 16.4645ZM24.2472 19.2729L23.8383 20.1855L23.8468 20.1893L23.8554 20.193L24.2472 19.2729ZM24.4077 19.5382L25.3991 19.6691L25.4024 19.6437L25.4045 19.6182L24.4077 19.5382ZM25.2942 16.9024L19.0275 14.0941L18.2095 15.9192L24.4763 18.7276L25.2942 16.9024ZM19.0123 14.0875C18.5755 13.9003 18.0989 13.825 17.6257 13.8685L17.8086 15.8601C17.9506 15.8471 18.0936 15.8696 18.2247 15.9258L19.0123 14.0875ZM17.6257 13.8685C17.1524 13.912 16.6975 14.0728 16.3021 14.3364L17.4115 16.0005C17.5302 15.9214 17.6667 15.8732 17.8086 15.8601L17.6257 13.8685ZM16.3143 14.3284C16.249 14.3706 16.1868 14.4173 16.128 14.4682L17.437 15.9802C17.4251 15.9905 17.4125 16 17.3993 16.0085L16.3143 14.3284ZM16.1346 14.4625L12.8593 17.2483L14.1551 18.7717L17.4304 15.9859L16.1346 14.4625ZM13.0285 17.132C13.1308 17.0763 13.2446 17.0451 13.361 17.0409L13.4324 19.0396C13.6262 19.0327 13.8157 18.9808 13.9859 18.888L13.0285 17.132ZM13.361 17.0409C13.4774 17.0368 13.5932 17.0597 13.6992 17.1081L12.8695 18.9278C13.0459 19.0083 13.2386 19.0466 13.4324 19.0396L13.361 17.0409ZM13.719 17.1174C11.8144 16.1981 9.7968 14.1919 8.87554 12.3171L7.08054 13.1991C8.19955 15.4764 10.5437 17.8055 12.8497 18.9185L13.719 17.1174ZM8.87614 12.3183C8.9262 12.4205 8.95222 12.5328 8.95222 12.6466H6.95222C6.95222 12.8377 6.9959 13.0263 7.07994 13.1979L8.87614 12.3183ZM8.95222 12.6466C8.95222 12.7605 8.9262 12.8728 8.87614 12.975L7.07994 12.0954C6.9959 12.267 6.95222 12.4556 6.95222 12.6466H8.95222ZM8.74269 13.1797L11.5378 9.86321L10.0085 8.57432L7.21339 11.8908L8.74269 13.1797ZM11.5466 9.85256C11.592 9.79724 11.6339 9.73927 11.6723 9.67895L9.98535 8.60469C9.98971 8.59784 9.99448 8.59126 9.99963 8.58497L11.5466 9.85256ZM11.6654 9.68973C11.9254 9.29279 12.0824 8.83736 12.1223 8.36454L10.1294 8.19633C10.1174 8.33819 10.0703 8.47482 9.99231 8.59391L11.6654 9.68973ZM12.1223 8.36454C12.1622 7.89172 12.0837 7.4164 11.894 6.9815L10.0609 7.7814C10.1178 7.91188 10.1414 8.05448 10.1294 8.19633L12.1223 8.36454ZM11.8908 6.97434L9.10235 0.718198L7.27559 1.53241L10.064 7.78856L11.8908 6.97434ZM9.10804 0.731216C8.86442 0.163058 8.4431 -0.310763 7.90732 -0.619132L6.90966 1.11427C7.0704 1.20678 7.1968 1.34894 7.26989 1.51939L9.10804 0.731216ZM7.90732 -0.619132C7.37153 -0.927502 6.75019 -1.05379 6.13654 -0.979029L6.3784 1.00629C6.5625 0.983865 6.74891 1.02175 6.90966 1.11427L7.90732 -0.619132ZM6.12713 -0.977837C4.15267 -0.718262 2.34027 0.251375 1.02864 1.74987L2.53357 3.06714C3.52511 1.93433 4.89521 1.20133 6.38782 1.0051L6.12713 -0.977837ZM1.02864 1.74987C-0.282994 3.24837 -1.00412 5.17319 -0.999982 7.16464L1.00001 7.16049C0.996884 5.65503 1.54203 4.19994 2.53357 3.06714L1.02864 1.74987ZM-0.999984 7.16257C-0.999984 18.102 7.89801 27 18.8374 27V25C9.00259 25 1.00002 16.9974 1.00002 7.16257H-0.999984ZM18.8355 27C20.8268 27.0038 22.7514 26.2826 24.2498 24.971L22.9325 23.4661C21.7997 24.4576 20.3447 25.0029 18.8393 25L18.8355 27ZM24.2498 24.971C25.7482 23.6595 26.7179 21.8473 26.9777 19.873L24.9949 19.612C24.7984 21.1046 24.0653 22.4746 22.9325 23.4661L24.2498 24.971ZM26.9789 19.8638C27.0535 19.253 26.929 18.6344 26.6238 18.1001L24.8871 19.0922C24.9787 19.2525 25.0161 19.438 24.9937 19.6213L26.9789 19.8638ZM26.6238 18.1001C26.3186 17.5658 25.849 17.1444 25.285 16.8984L24.4855 18.7316C24.6547 18.8054 24.7956 18.9319 24.8871 19.0922L26.6238 18.1001ZM18.8374 23.4081C9.88078 23.4081 2.59191 16.1192 2.59191 7.16257H0.591906C0.591906 17.2238 8.77621 25.4081 18.8374 25.4081V23.4081ZM2.5919 7.15931C2.58826 6.04112 2.99185 4.95985 3.72728 4.11752L2.2207 2.80214C1.16567 4.01052 0.586685 5.56169 0.591911 7.16582L2.5919 7.15931ZM3.72728 4.11752C4.46271 3.2752 5.47965 2.72945 6.58811 2.58223L6.3248 0.599639C4.73462 0.810832 3.27573 1.59376 2.2207 2.80214L3.72728 4.11752ZM6.45646 2.59093H6.48697V0.590934H6.45646V2.59093ZM6.4683 2.59076C6.32027 2.588 6.17652 2.54057 6.05591 2.4547L7.21588 0.825441C7.00815 0.677549 6.76059 0.595869 6.50564 0.591109L6.4683 2.59076ZM6.05591 2.4547C5.9353 2.36882 5.84344 2.24851 5.79239 2.10954L7.66973 1.41989C7.5818 1.18054 7.42361 0.973335 7.21588 0.825441L6.05591 2.4547ZM5.81842 2.17348L8.61749 8.42299L10.4428 7.60547L7.6437 1.35596L5.81842 2.17348ZM8.62145 8.43173C8.57725 8.33552 8.55436 8.23089 8.55436 8.125H10.5544C10.5544 7.94264 10.5149 7.76243 10.4388 7.59673L8.62145 8.43173ZM8.55436 8.125C8.55436 8.01911 8.57725 7.91448 8.62145 7.81827L10.4388 8.65327C10.5149 8.48757 10.5544 8.30736 10.5544 8.125H8.55436ZM8.76532 7.59151L5.96492 10.9159L7.49454 12.2044L10.2949 8.88002L8.76532 7.59151ZM5.97645 10.9025C5.92431 10.9622 5.87651 11.0256 5.83341 11.0921L7.51197 12.1795C7.50324 12.193 7.49357 12.2058 7.48301 12.2179L5.97645 10.9025ZM5.83618 11.0878C5.56659 11.4994 5.40784 11.9736 5.37531 12.4645L7.37093 12.5968C7.38069 12.4495 7.42832 12.3072 7.5092 12.1837L5.83618 11.0878ZM5.37531 12.4645C5.34277 12.9554 5.43755 13.4464 5.65046 13.8899L7.45348 13.0244C7.3896 12.8914 7.36117 12.744 7.37093 12.5968L5.37531 12.4645ZM5.65343 13.8961C6.9295 16.5086 9.52145 19.0792 12.1569 20.3524L13.0269 18.5516C10.7911 17.4714 8.52779 15.2239 7.45052 13.0183L5.65343 13.8961ZM12.1631 20.3554C12.6092 20.5671 13.1026 20.6596 13.5951 20.6239L13.4503 18.6291C13.3025 18.6399 13.1545 18.6121 13.0206 18.5486L12.1631 20.3554ZM13.5951 20.6239C14.0877 20.5881 14.5625 20.4253 14.9734 20.1513L13.8638 18.4874C13.7405 18.5695 13.598 18.6184 13.4503 18.6291L13.5951 20.6239ZM14.9832 20.1446C15.0274 20.1144 15.0791 20.0768 15.133 20.0318L13.8527 18.4954C13.856 18.4926 13.8579 18.4912 13.8579 18.4912C13.858 18.4912 13.8567 18.4921 13.8539 18.494L14.9832 20.1446ZM15.1409 20.0252L18.4149 17.2394L17.1188 15.7162L13.8448 18.502L15.1409 20.0252ZM18.2402 17.3587C18.1456 17.4095 18.0411 17.4393 17.9339 17.446L17.8091 15.4499C17.6287 15.4612 17.4528 15.5113 17.2935 15.5969L18.2402 17.3587ZM17.9339 17.446C17.8267 17.4527 17.7193 17.4362 17.6191 17.3975L18.3391 15.5316C18.1704 15.4665 17.9896 15.4386 17.8091 15.4499L17.9339 17.446ZM17.5702 17.3771L23.8383 20.1855L24.656 18.3603L18.388 15.5519L17.5702 17.3771ZM23.8554 20.193C23.7136 20.1326 23.5944 20.0291 23.5146 19.8973L25.2258 18.862C25.0884 18.635 24.8832 18.4568 24.639 18.3529L23.8554 20.193ZM23.5146 19.8973C23.4349 19.7655 23.3986 19.6119 23.4109 19.4583L25.4045 19.6182C25.4257 19.3536 25.3632 19.0891 25.2258 18.862L23.5146 19.8973ZM23.4163 19.4073C23.2698 20.5163 22.7246 21.5341 21.8824 22.2704L23.1988 23.7761C24.4068 22.7199 25.189 21.26 25.3991 19.6691L23.4163 19.4073ZM21.8824 22.2704C21.0402 23.0067 19.9587 23.4111 18.8401 23.4081L18.8347 25.4081C20.4394 25.4124 21.9907 24.8323 23.1988 23.7761L21.8824 22.2704Z" fill="#184065" fill-opacity="0.13" mask="url(#path-1-inside-1_54_438)"/>
</svg>
