<svg width="24" height="24" viewBox="0 0 24 24" fill="none" xmlns="http://www.w3.org/2000/svg">
<g clip-path="url(#clip0_58_713)">
<path d="M12.6667 2.66666C12.4899 2.66666 12.3203 2.73689 12.1953 2.86192C12.0702 2.98694 12 3.15651 12 3.33332C12 3.51013 12.0702 3.6797 12.1953 3.80473C12.3203 3.92975 12.4899 3.99999 12.6667 3.99999H19.06L12.8933 10.1667C12.8235 10.2264 12.7669 10.3 12.7268 10.3827C12.6868 10.4654 12.6643 10.5555 12.6608 10.6473C12.6573 10.7391 12.6727 10.8307 12.7062 10.9162C12.7398 11.0018 12.7906 11.0795 12.8556 11.1444C12.9205 11.2094 12.9982 11.2602 13.0838 11.2937C13.1693 11.3273 13.2609 11.3427 13.3527 11.3392C13.4445 11.3356 13.5346 11.3132 13.6173 11.2731C13.7 11.2331 13.7736 11.1764 13.8333 11.1067L20 4.93999V11.3333C20 11.5101 20.0702 11.6797 20.1953 11.8047C20.3203 11.9298 20.4899 12 20.6667 12C20.8435 12 21.013 11.9298 21.1381 11.8047C21.2631 11.6797 21.3333 11.5101 21.3333 11.3333V2.66666H12.6667Z" fill="#4B4B4B"/>
<path d="M2.66663 12.6667C2.66663 12.4899 2.73686 12.3203 2.86189 12.1953C2.98691 12.0702 3.15648 12 3.33329 12C3.5101 12 3.67967 12.0702 3.8047 12.1953C3.92972 12.3203 3.99996 12.4899 3.99996 12.6667V19.06L10.1666 12.8933C10.2264 12.8235 10.2999 12.7669 10.3826 12.7268C10.4654 12.6868 10.5554 12.6643 10.6473 12.6608C10.7391 12.6573 10.8306 12.6727 10.9162 12.7062C11.0017 12.7398 11.0794 12.7906 11.1444 12.8556C11.2094 12.9205 11.2602 12.9982 11.2937 13.0838C11.3272 13.1693 11.3427 13.2609 11.3392 13.3527C11.3356 13.4445 11.3131 13.5346 11.2731 13.6173C11.2331 13.7 11.1764 13.7736 11.1066 13.8333L4.93996 20H11.3333C11.5101 20 11.6797 20.0702 11.8047 20.1953C11.9297 20.3203 12 20.4899 12 20.6667C12 20.8435 11.9297 21.013 11.8047 21.1381C11.6797 21.2631 11.5101 21.3333 11.3333 21.3333H2.66663V12.6667Z" fill="#4B4B4B"/>
</g>
<defs>
<clipPath id="clip0_58_713">
<rect width="24" height="24" fill="white"/>
</clipPath>
</defs>
</svg>
