<svg width="21" height="21" viewBox="0 0 21 21" fill="none" xmlns="http://www.w3.org/2000/svg">
<path d="M14.6323 12.3026C14.4088 12.1878 13.2952 11.6423 13.0881 11.5685C12.881 11.4905 12.7292 11.4536 12.5795 11.6833C12.4277 11.9109 11.9971 12.4175 11.8617 12.5713C11.7305 12.723 11.5972 12.7415 11.3736 12.6287C10.0447 11.9643 9.17314 11.4434 8.29745 9.94014C8.06572 9.54023 8.52919 9.56895 8.96191 8.70557C9.03574 8.55381 8.99882 8.42461 8.9414 8.30977C8.88398 8.19492 8.43281 7.0834 8.24413 6.63018C8.06161 6.18926 7.87294 6.25078 7.73554 6.24258C7.60429 6.23437 7.45458 6.23438 7.30283 6.23438C7.15107 6.23438 6.90703 6.2918 6.6999 6.51533C6.49277 6.74297 5.90829 7.29053 5.90829 8.40205C5.90829 9.51357 6.71835 10.5902 6.8291 10.742C6.94394 10.8937 8.42255 13.1742 10.6928 14.1565C12.1283 14.7759 12.6902 14.8292 13.408 14.7226C13.8448 14.6569 14.7451 14.1771 14.9317 13.6459C15.1184 13.1168 15.1184 12.6636 15.063 12.5692C15.0076 12.4688 14.8559 12.4113 14.6323 12.3026Z" fill="#209B1E"/>
<path d="M18.9738 6.93984C18.5103 5.83857 17.8459 4.8501 16.9989 4.00107C16.1519 3.1541 15.1635 2.4876 14.0601 2.02617C12.9322 1.55244 11.7346 1.3125 10.5 1.3125H10.459C9.2162 1.31865 8.0124 1.56475 6.88036 2.04873C5.7873 2.51631 4.80703 3.18076 3.96826 4.02773C3.12949 4.87471 2.47119 5.85908 2.01591 6.95625C1.54423 8.09238 1.30634 9.30029 1.31249 10.5431C1.31865 11.9663 1.65908 13.3793 2.29687 14.6426V17.7598C2.29687 18.2807 2.71933 18.7031 3.24023 18.7031H6.35947C7.62275 19.3409 9.03574 19.6813 10.459 19.6875H10.502C11.7305 19.6875 12.922 19.4496 14.0437 18.9841C15.1409 18.5268 16.1273 17.8705 16.9723 17.0317C17.8192 16.193 18.4857 15.2127 18.9513 14.1196C19.4352 12.9876 19.6813 11.7838 19.6875 10.541C19.6936 9.29209 19.4517 8.08008 18.9738 6.93984ZM15.8751 15.9223C14.4375 17.3455 12.5303 18.1289 10.5 18.1289H10.4651C9.22851 18.1228 8.00009 17.8151 6.91523 17.2368L6.74296 17.1445H3.85546V14.257L3.76318 14.0848C3.18486 12.9999 2.87724 11.7715 2.87109 10.5349C2.86288 8.49023 3.64423 6.5707 5.07773 5.1249C6.50917 3.6791 8.42255 2.8793 10.4672 2.87109H10.502C11.5274 2.87109 12.5221 3.07002 13.4593 3.46377C14.3739 3.84727 15.1942 4.39893 15.8997 5.10439C16.6031 5.80781 17.1568 6.63018 17.5403 7.54482C17.9382 8.49229 18.1371 9.49717 18.133 10.5349C18.1207 12.5774 17.3188 14.4908 15.8751 15.9223Z" fill="#209B1E"/>
</svg>
