<svg width="32" height="32" viewBox="0 0 32 32" fill="none" xmlns="http://www.w3.org/2000/svg">
<path d="M21.9485 18.954C21.6132 18.7817 19.9428 17.9634 19.6321 17.8527C19.3214 17.7358 19.0938 17.6804 18.8692 18.025C18.6416 18.3664 17.9956 19.1262 17.7926 19.3569C17.5957 19.5846 17.3957 19.6123 17.0604 19.4431C15.0671 18.4464 13.7597 17.665 12.4462 15.4102C12.0986 14.8104 12.7938 14.8534 13.4428 13.5583C13.5536 13.3307 13.4982 13.1369 13.4121 12.9646C13.326 12.7924 12.6492 11.1251 12.3662 10.4453C12.0924 9.78389 11.8094 9.87617 11.6033 9.86387C11.4064 9.85156 11.1819 9.85156 10.9542 9.85156C10.7266 9.85156 10.3605 9.9377 10.0498 10.273C9.73914 10.6145 8.86243 11.4358 8.86243 13.1031C8.86243 14.7704 10.0775 16.3854 10.2436 16.613C10.4159 16.8406 12.6338 20.2613 16.0391 21.7348C18.1925 22.6638 19.0353 22.7438 20.112 22.5838C20.7672 22.4854 22.1177 21.7656 22.3976 20.9688C22.6775 20.1752 22.6775 19.4954 22.5945 19.3539C22.5114 19.2031 22.2838 19.117 21.9485 18.954Z" fill="white"/>
<path d="M28.4608 10.9098C27.7656 9.25786 26.7689 7.77515 25.4984 6.50161C24.228 5.23115 22.7453 4.2314 21.0903 3.53926C19.3984 2.82866 17.6019 2.46875 15.7501 2.46875H15.6885C13.8244 2.47798 12.0187 2.84712 10.3206 3.5731C8.68101 4.27446 7.2106 5.27114 5.95244 6.5416C4.69429 7.81206 3.70684 9.28862 3.02393 10.9344C2.31641 12.6386 1.95957 14.4504 1.9688 16.3146C1.97803 18.4495 2.48868 20.5689 3.44536 22.4639V27.1396C3.44536 27.921 4.07906 28.5547 4.8604 28.5547H9.53926C11.4342 29.5114 13.5537 30.022 15.6885 30.0312H15.7531C17.5958 30.0312 19.383 29.6744 21.0657 28.9761C22.7114 28.2901 24.1911 27.3058 25.4584 26.0476C26.7289 24.7895 27.7287 23.319 28.427 21.6794C29.1529 19.9814 29.5221 18.1757 29.5313 16.3115C29.5405 14.4381 29.1775 12.6201 28.4608 10.9098ZM23.8127 24.3834C21.6563 26.5183 18.7955 27.6934 15.7501 27.6934H15.6978C13.8428 27.6841 12.0002 27.2227 10.3729 26.3552L10.1145 26.2168H5.78326V21.8855L5.64483 21.6271C4.77735 19.9999 4.31592 18.1572 4.30669 16.3023C4.29439 13.2354 5.46641 10.3561 7.61665 8.18735C9.76382 6.01865 12.6339 4.81895 15.7008 4.80664H15.7531C17.2912 4.80664 18.7832 5.10503 20.189 5.69565C21.5609 6.2709 22.7914 7.09839 23.8496 8.15659C24.9047 9.21172 25.7353 10.4453 26.3105 11.8172C26.9073 13.2384 27.2057 14.7458 27.1996 16.3023C27.1811 19.3662 25.9783 22.2362 23.8127 24.3834Z" fill="white"/>
</svg>
